<svg xmlns="http://www.w3.org/2000/svg" style="display:none">
  <symbol id="icon-network" viewBox="0 0 64 64">
    <g fill="none" stroke="currentColor" stroke-linecap="round" stroke-linejoin="round" stroke-width="3">
      <rect x="24" y="8" width="16" height="12" rx="3"/>
      <rect x="8" y="40" width="16" height="12" rx="3"/>
      <rect x="40" y="40" width="16" height="12" rx="3"/>
      <path d="M32 20v10M16 40V30h32v10"/>
    </g>
  </symbol>
  <symbol id="icon-phone" viewBox="0 0 64 64">
    <path fill="none" stroke="currentColor" stroke-linecap="round" stroke-linejoin="round" stroke-width="3" d="M21 12h8l4 10-5 4c4 7 8 11 15 15l4-5 10 4v8c0 2-2 4-4 4C29 56 8 35 8 16c0-2 2-4 4-4h9z"/>
  </symbol>
  <symbol id="icon-maintenance" viewBox="0 0 64 64">
    <g fill="none" stroke="currentColor" stroke-linecap="round" stroke-linejoin="round" stroke-width="3">
      <circle cx="22" cy="42" r="6"/>
      <circle cx="42" cy="22" r="6"/>
      <path d="M26 38l12-12M18 18l8 2 4-4-2-8M34 46l8 2 4-4-2-8"/>
    </g>
  </symbol>
  <symbol id="icon-access" viewBox="0 0 64 64">
    <g fill="none" stroke="currentColor" stroke-linecap="round" stroke-linejoin="round" stroke-width="3">
      <rect x="12" y="10" width="28" height="44" rx="4"/>
      <path d="M40 20h8a4 4 0 0 1 4 4v16a4 4 0 0 1-4 4h-8"/>
      <circle cx="27" cy="32" r="2"/>
    </g>
  </symbol>
  <symbol id="icon-camera" viewBox="0 0 64 64">
    <g fill="none" stroke="currentColor" stroke-linecap="round" stroke-linejoin="round" stroke-width="3">
      <rect x="10" y="24" width="28" height="18" rx="4"/>
      <path d="M38 28l14-8v26l-14-8"/>
      <circle cx="24" cy="33" r="5"/>
    </g>
  </symbol>
  <symbol id="icon-fire" viewBox="0 0 64 64">
    <path fill="none" stroke="currentColor" stroke-linecap="round" stroke-linejoin="round" stroke-width="3" d="M34 10c2 8-6 10-6 18 0 3 2 6 6 6 5 0 8-4 8-10 6 5 10 11 10 18 0 10-8 18-20 18S12 52 12 42c0-11 8-18 14-25 2 5 6 8 8 9"/>
  </symbol>
  <symbol id="icon-alarm" viewBox="0 0 64 64">
    <g fill="none" stroke="currentColor" stroke-linecap="round" stroke-linejoin="round" stroke-width="3">
      <path d="M20 16l-6-6M44 16l6-6"/>
      <circle cx="32" cy="34" r="18"/>
      <path d="M32 34V24M32 34l8 6"/>
    </g>
  </symbol>
  <symbol id="icon-electricity" viewBox="0 0 64 64">
    <path fill="none" stroke="currentColor" stroke-linecap="round" stroke-linejoin="round" stroke-width="3" d="M36 8L18 34h12l-2 22 18-26H34l2-22z"/>
  </symbol>
  <symbol id="icon-barrier" viewBox="0 0 64 64">
    <g fill="none" stroke="currentColor" stroke-linecap="round" stroke-linejoin="round" stroke-width="3">
      <path d="M14 48h36"/>
      <rect x="10" y="36" width="8" height="12" rx="2"/>
      <path d="M18 38l30-14 4 8-30 14"/>
      <path d="M28 33l4 8M38 28l4 8"/>
    </g>
  </symbol>
  <symbol id="icon-intercom" viewBox="0 0 64 64">
    <g fill="none" stroke="currentColor" stroke-linecap="round" stroke-linejoin="round" stroke-width="3">
      <rect x="20" y="8" width="24" height="48" rx="4"/>
      <circle cx="32" cy="18" r="3"/>
      <path d="M26 30h12M26 38h12M28 48h8"/>
    </g>
  </symbol>
  <symbol id="icon-video" viewBox="0 0 64 64">
    <g fill="none" stroke="currentColor" stroke-linecap="round" stroke-linejoin="round" stroke-width="3">
      <rect x="8" y="14" width="32" height="36" rx="5"/>
      <circle cx="24" cy="32" r="8"/>
      <path d="M40 24l14-6v28l-14-6"/>
    </g>
  </symbol>
  <symbol id="icon-home" viewBox="0 0 64 64">
    <g fill="none" stroke="currentColor" stroke-linecap="round" stroke-linejoin="round" stroke-width="3">
      <path d="M10 30L32 12l22 18"/>
      <path d="M16 28v24h32V28"/>
      <path d="M26 52V38h12v14"/>
    </g>
  </symbol>
</svg>
